<svg width="779" height="128" viewBox="0 0 779 128" fill="none" xmlns="http://www.w3.org/2000/svg">
<path d="M39.9635 97.8326C27.4194 97.8326 18.1779 95.1683 12.2388 89.8399C6.29981 84.5114 3.33029 76.9072 3.33029 67.0274C3.33029 57.092 6.29981 49.238 12.2388 43.4655C18.1779 37.693 27.4194 34.8068 39.9635 34.8068C57.5031 34.8068 69.2424 40.829 75.1814 52.8736C70.1859 54.5943 64.3302 57.1752 57.6141 60.6165C56.0044 57.5083 53.4512 55.2048 49.9544 53.7062C46.5131 52.2075 42.9885 51.4582 39.3807 51.4582C34.0523 51.4582 30.0837 52.8736 27.4749 55.7044C24.8662 58.4796 23.5618 61.9209 23.5618 66.0283C23.5618 70.4687 24.9495 74.1042 27.7247 76.935C30.5554 79.7102 34.8571 81.0978 40.6296 81.0978C45.2365 81.0978 48.8998 80.3485 51.6196 78.8499C54.3393 77.2958 56.3375 74.8535 57.6141 71.5233C62.1655 73.9655 67.9935 76.713 75.0981 79.7657C72.3229 86.4818 67.6882 91.172 61.1941 93.8362C54.7001 96.5005 47.6232 97.8326 39.9635 97.8326ZM125.915 76.1857H98.7731C99.2172 78.6279 100.3 80.6261 102.02 82.1802C103.796 83.6788 106.294 84.4281 109.513 84.4281C111.845 84.4281 114.037 83.9841 116.091 83.096C118.144 82.1524 119.782 80.8481 121.003 79.1829C124.722 81.0146 129.662 82.985 135.823 85.0942C134.102 88.9795 130.966 92.0878 126.415 94.419C121.919 96.6947 116.035 97.8326 108.764 97.8326C99.3282 97.8326 92.3346 95.6679 87.7832 91.3385C83.2873 86.9536 81.0393 81.2089 81.0393 74.1042C81.0393 67.1661 83.2873 61.5324 87.7832 57.203C92.2791 52.8736 99.2727 50.7089 108.764 50.7089C114.426 50.7089 119.338 51.6525 123.501 53.5397C127.663 55.4268 130.855 58.0633 133.075 61.4491C135.295 64.7794 136.405 68.6092 136.405 72.9386C136.405 74.3818 136.35 75.4641 136.239 76.1857H125.915ZM109.93 63.2808C107.154 63.2808 104.879 63.8081 103.103 64.8627C101.326 65.9173 100.077 67.3604 99.3559 69.192H119.005C118.339 67.4159 117.256 66.0005 115.758 64.9459C114.259 63.8358 112.316 63.2808 109.93 63.2808ZM161.517 63.8636C163.848 55.4823 169.648 51.2917 178.917 51.2917C180.527 51.2917 182.081 51.4027 183.58 51.6247L180.916 70.2744C176.919 68.7758 173.644 68.0264 171.091 68.0264C167.927 68.0264 165.596 68.97 164.098 70.8572C162.599 72.7444 161.85 75.2698 161.85 78.4336V78.3504L161.766 83.8453C161.766 87.7862 161.877 92.1711 162.099 97H142.201C142.645 89.0073 142.867 81.4586 142.867 74.354C142.867 67.2494 142.645 59.6452 142.201 51.5415C145.864 51.708 148.667 51.7913 150.61 51.7913C152.664 51.7913 155.467 51.708 159.019 51.5415L161.517 63.8636ZM242.183 32.2258C241.85 42.5497 241.683 53.3454 241.683 64.6129C241.683 75.7694 241.85 86.5651 242.183 97H223.366L223.616 87.0091C222.007 90.7279 219.675 93.4754 216.623 95.2516C213.57 96.9722 209.962 97.8326 205.799 97.8326C202.191 97.8326 198.944 96.8057 196.058 94.7521C193.172 92.6984 190.924 89.9231 189.314 86.4263C187.705 82.874 186.9 78.9887 186.9 74.7703C186.9 70.6074 187.705 66.6943 189.314 63.031C190.924 59.3122 193.172 56.3427 196.058 54.1225C199 51.8468 202.33 50.7089 206.049 50.7089C210.378 50.7089 214.069 51.6247 217.122 53.4564C220.23 55.2326 222.534 58.0078 224.033 61.7821C224.033 58.6184 223.921 53.5397 223.699 46.5461C223.477 39.7745 223.366 35.001 223.366 32.2258H242.183ZM214.541 83.8453C217.261 83.8453 219.481 83.096 221.202 81.5974C222.922 80.0433 223.783 77.601 223.783 74.2707C223.783 71.329 222.922 69.1643 221.202 67.7767C219.481 66.3891 217.316 65.6952 214.708 65.6952C212.21 65.6952 210.101 66.5001 208.38 68.1097C206.715 69.6638 205.882 71.7175 205.882 74.2707C205.882 77.1015 206.659 79.4049 208.214 81.1811C209.768 82.9573 211.877 83.8453 214.541 83.8453ZM302.242 83.1793C302.242 85.0664 302.464 86.3986 302.908 87.1756C303.352 87.9527 304.241 88.5078 305.573 88.8408L305.24 96.667C303.463 96.9445 301.909 97.1388 300.577 97.2498C299.301 97.3608 297.58 97.4163 295.415 97.4163C290.642 97.4163 287.478 96.3617 285.924 94.2525C284.37 92.0878 283.593 89.3403 283.593 86.01V83.9286C281.983 88.48 279.624 91.8658 276.516 94.086C273.463 96.3062 269.55 97.4163 264.777 97.4163C259.226 97.4163 255.035 96.3062 252.205 94.086C249.429 91.8658 248.042 88.5633 248.042 84.1784C248.042 80.5706 249.235 77.7398 251.622 75.6861C254.009 73.6324 257.7 72.2171 262.695 71.44C258.477 68.4427 254.258 65.834 250.04 63.6138C253.37 59.3954 257.172 56.2039 261.446 54.0392C265.72 51.819 270.91 50.7089 277.015 50.7089C285.563 50.7089 291.891 52.5683 295.998 56.2872C300.161 59.9505 302.242 65.612 302.242 73.2717V83.1793ZM278.764 65.3622C275.933 65.3622 273.435 65.834 271.271 66.7776C269.106 67.7212 267.163 69.1365 265.443 71.0237C268.773 70.6352 272.936 70.4409 277.931 70.4409C279.985 70.4409 281.428 70.1911 282.261 69.6916C283.093 69.192 283.509 68.5537 283.509 67.7767C283.509 67.1106 283.093 66.5556 282.261 66.1115C281.428 65.612 280.262 65.3622 278.764 65.3622ZM270.022 83.8453C273.13 83.8453 275.933 83.2625 278.431 82.0969C280.928 80.8758 282.649 79.2939 283.593 77.3513V75.1866C282.261 75.8526 280.79 76.3799 279.18 76.7685C277.57 77.1015 275.628 77.4345 273.352 77.7676L270.355 78.2671C267.247 78.8777 265.692 79.9322 265.692 81.4309C265.692 83.0405 267.136 83.8453 270.022 83.8453ZM337.478 97.8326C332.815 97.8326 328.07 97.1943 323.241 95.9177C318.467 94.5855 313.971 92.5874 309.753 89.9231L318.495 78.0173C321.048 79.849 324.129 81.2921 327.737 82.3467C331.344 83.3458 334.453 83.8453 337.061 83.8453C339.559 83.8453 341.474 83.5123 342.806 82.8463C344.194 82.1247 344.888 81.2089 344.888 80.0988C344.888 79.2107 344.555 78.5169 343.889 78.0173C343.223 77.5178 342.307 77.268 341.141 77.268C340.42 77.268 339.587 77.2958 338.643 77.3513C337.755 77.4068 337.034 77.4623 336.479 77.5178C333.592 77.8508 330.623 78.0173 327.57 78.0173C322.63 78.0173 318.606 77.1015 315.498 75.2698C312.445 73.3827 310.919 70.3299 310.919 66.1115C310.919 61.2271 313.222 57.4528 317.829 54.7885C322.436 52.0688 329.208 50.7089 338.144 50.7089C342.529 50.7089 346.941 51.3472 351.382 52.6238C355.878 53.8449 359.846 55.7044 363.288 58.2021L353.713 67.8599C350.549 66.1948 347.58 65.0292 344.804 64.3631C342.085 63.6416 339.337 63.2808 336.562 63.2808C334.619 63.2808 332.954 63.6693 331.567 64.4464C330.179 65.2234 329.485 66.1115 329.485 67.1106C329.485 67.8877 329.763 68.4982 330.318 68.9423C330.928 69.3863 331.705 69.6083 332.649 69.6083C333.592 69.6083 334.897 69.5251 336.562 69.3586C340.614 69.081 343.639 68.9423 345.637 68.9423C351.41 68.9423 355.878 69.9136 359.041 71.8563C362.205 73.799 363.787 76.7685 363.787 80.7648C363.787 86.7593 361.456 91.1165 356.793 93.8362C352.131 96.5005 345.693 97.8326 337.478 97.8326ZM447.459 36.5552L453.953 97H432.39L431.058 53.8727L422.732 97H400.919L392.426 54.2057L391.177 97H369.614L376.108 36.5552H404.415L411.659 75.9359L417.986 36.5552H447.459ZM504.638 76.1857H477.496C477.94 78.6279 479.023 80.6261 480.743 82.1802C482.52 83.6788 485.017 84.4281 488.237 84.4281C490.568 84.4281 492.76 83.9841 494.814 83.096C496.868 82.1524 498.505 80.8481 499.726 79.1829C503.445 81.0146 508.385 82.985 514.546 85.0942C512.825 88.9795 509.689 92.0878 505.138 94.419C500.642 96.6947 494.758 97.8326 487.487 97.8326C478.052 97.8326 471.058 95.6679 466.506 91.3385C462.011 86.9536 459.763 81.2089 459.763 74.1042C459.763 67.1661 462.011 61.5324 466.506 57.203C471.002 52.8736 477.996 50.7089 487.487 50.7089C493.149 50.7089 498.061 51.6525 502.224 53.5397C506.387 55.4268 509.578 58.0633 511.798 61.4491C514.019 64.7794 515.129 68.6092 515.129 72.9386C515.129 74.3818 515.073 75.4641 514.962 76.1857H504.638ZM488.653 63.2808C485.878 63.2808 483.602 63.8081 481.826 64.8627C480.05 65.9173 478.801 67.3604 478.079 69.192H497.728C497.062 67.4159 495.98 66.0005 494.481 64.9459C492.982 63.8358 491.04 63.2808 488.653 63.2808ZM585.449 97C585.893 89.7289 586.115 82.2079 586.115 74.4373C586.115 71.9395 585.476 69.9969 584.2 68.6092C582.979 67.1661 581.341 66.4446 579.288 66.4446C577.401 66.4446 575.763 67.2771 574.376 68.9423C573.043 70.6074 572.377 73.0219 572.377 76.1857V76.1024C572.377 85.9268 572.516 92.8926 572.794 97H554.061C554.394 88.8408 554.56 81.3199 554.56 74.4373C554.56 71.995 553.95 70.0524 552.729 68.6092C551.563 67.1661 550.064 66.4446 548.233 66.4446C546.29 66.4446 544.653 67.2771 543.321 68.9423C542.044 70.5519 541.295 72.7721 541.073 75.6029C540.962 79.8212 540.906 82.8185 540.906 84.5947C540.906 88.369 541.017 92.5041 541.239 97H521.341C521.785 89.0073 522.007 81.4586 522.007 74.354C522.007 67.2494 521.785 59.6452 521.341 51.5415C525.004 51.708 527.807 51.7913 529.75 51.7913C531.803 51.7913 534.606 51.708 538.159 51.5415L540.656 63.8636C541.933 59.3677 543.959 56.0651 546.734 53.956C549.509 51.7913 552.701 50.7089 556.309 50.7089C560.638 50.7089 564.163 51.9023 566.882 54.289C569.658 56.6757 571.378 59.784 572.044 63.6138C573.321 59.673 575.458 56.5369 578.455 54.2057C581.452 51.8745 584.866 50.7089 588.696 50.7089C593.691 50.7089 597.604 52.4018 600.435 55.7876C603.266 59.1179 604.681 63.6971 604.681 69.5251V83.3458C604.681 89.6178 604.737 94.1693 604.848 97H585.449ZM623.469 46.6293C619.972 46.6293 617.363 45.769 615.643 44.0483C613.977 42.3277 613.145 40.0797 613.145 37.3045C613.145 34.5847 613.977 32.3368 615.643 30.5606C617.363 28.7845 619.972 27.8964 623.469 27.8964C626.799 27.8964 629.352 28.8122 631.128 30.6439C632.905 32.4201 633.793 34.6403 633.793 37.3045C633.793 40.0797 632.932 42.3277 631.212 44.0483C629.491 45.769 626.91 46.6293 623.469 46.6293ZM613.811 97C614.199 88.0637 614.394 80.6816 614.394 74.8535C614.394 67.9154 614.172 60.1447 613.728 51.5415H633.709C633.265 59.8117 633.043 67.5824 633.043 74.8535C633.043 80.9591 633.238 88.3412 633.626 97H613.811ZM660.823 63.6971C660.767 67.0274 660.739 72.1338 660.739 79.0164C660.739 87.2866 660.795 93.2812 660.906 97H641.257L641.34 87.5919C641.451 77.268 641.507 69.3031 641.507 63.6971C641.507 58.3686 641.451 50.8199 641.34 41.0511L641.257 32.0593H660.906C660.795 39.941 660.739 46.3795 660.739 51.375C660.739 56.9255 660.767 61.0328 660.823 63.6971ZM678.757 46.6293C675.26 46.6293 672.651 45.769 670.931 44.0483C669.265 42.3277 668.433 40.0797 668.433 37.3045C668.433 34.5847 669.265 32.3368 670.931 30.5606C672.651 28.7845 675.26 27.8964 678.757 27.8964C682.087 27.8964 684.64 28.8122 686.416 30.6439C688.193 32.4201 689.081 34.6403 689.081 37.3045C689.081 40.0797 688.22 42.3277 686.5 44.0483C684.779 45.769 682.198 46.6293 678.757 46.6293ZM669.099 97C669.487 88.0637 669.682 80.6816 669.682 74.8535C669.682 67.9154 669.46 60.1447 669.016 51.5415H688.997C688.553 59.8117 688.331 67.5824 688.331 74.8535C688.331 80.9591 688.526 88.3412 688.914 97H669.099ZM729.016 97C729.349 88.8408 729.515 81.3199 729.515 74.4373C729.515 71.995 728.905 70.0524 727.683 68.6092C726.518 67.1661 725.019 66.4446 723.188 66.4446C721.245 66.4446 719.58 67.3881 718.192 69.2753C716.86 71.1625 716.194 73.7434 716.194 77.0182L716.111 76.8517C716.111 85.899 716.222 92.6151 716.444 97H696.545C696.989 89.0073 697.211 78.1838 697.211 64.5296C697.211 50.8754 696.989 40.052 696.545 32.0593H716.36L716.444 57.7025L716.36 62.1152C717.693 58.2298 719.663 55.3713 722.272 53.5397C724.936 51.6525 727.933 50.7089 731.264 50.7089C734.594 50.7089 737.48 51.4582 739.922 52.9569C742.364 54.4 744.196 56.3704 745.417 58.8681C746.694 61.3659 747.332 64.1689 747.332 67.2771V79.2662C747.332 86.6483 747.471 92.5596 747.748 97H729.016Z" fill="#1F2937"/>
<path d="M591.474 81.3192C591.474 81.3192 792.246 165.01 767.962 81.3192" stroke="#F97316" stroke-width="17.3453" stroke-linecap="round"/>
</svg>
