<svg width="276" height="46" viewBox="0 0 276 46" fill="none" xmlns="http://www.w3.org/2000/svg">
<g clip-path="url(#clip0_7_63)">
<path d="M14.1591 34.6622C9.71471 34.6622 6.44045 33.7182 4.33622 31.8304C2.23203 29.9425 1.17993 27.2483 1.17993 23.7479C1.17993 20.2278 2.23203 17.4451 4.33622 15.3999C6.44045 13.3547 9.71471 12.3321 14.1591 12.3321C20.3734 12.3321 24.5326 14.4658 26.6368 18.7332C24.8669 19.3429 22.7922 20.2573 20.4127 21.4765C19.8424 20.3753 18.9378 19.5592 17.6989 19.0282C16.4796 18.4972 15.2309 18.2317 13.9526 18.2317C12.0648 18.2317 10.6587 18.7332 9.73438 19.7362C8.81011 20.7194 8.34796 21.9387 8.34796 23.3939C8.34796 24.9672 8.83963 26.2552 9.82288 27.2582C10.8258 28.2414 12.3499 28.7331 14.3951 28.7331C16.0273 28.7331 17.3252 28.4676 18.2889 27.9366C19.2524 27.386 19.9604 26.5207 20.4127 25.3408C22.0253 26.2061 24.0901 27.1795 26.6073 28.2611C25.624 30.6406 23.982 32.3024 21.6811 33.2463C19.3803 34.1902 16.8729 34.6622 14.1591 34.6622ZM44.6117 26.9927H34.9954C35.1527 27.858 35.5363 28.5659 36.1457 29.1166C36.775 29.6475 37.66 29.913 38.8005 29.913C39.6267 29.913 40.4034 29.7557 41.1311 29.441C41.8585 29.1067 42.4388 28.6446 42.8714 28.0546C44.1891 28.7036 45.9393 29.4017 48.1222 30.149C47.5124 31.5256 46.4013 32.6268 44.7889 33.4528C43.196 34.2591 41.1113 34.6622 38.5351 34.6622C35.192 34.6622 32.7142 33.8953 31.1016 32.3613C29.5087 30.8078 28.7123 28.7724 28.7123 26.2552C28.7123 23.7971 29.5087 21.801 31.1016 20.2671C32.6945 18.7332 35.1724 17.9663 38.5351 17.9663C40.5412 17.9663 42.2815 18.3006 43.7565 18.9692C45.2311 19.6378 46.362 20.5719 47.1485 21.7715C47.9351 22.9515 48.3284 24.3083 48.3284 25.8423C48.3284 26.3536 48.3089 26.737 48.2695 26.9927H44.6117ZM38.9483 22.4205C37.9647 22.4205 37.1587 22.6073 36.5294 22.981C35.8999 23.3546 35.4573 23.8659 35.2018 24.5148H42.1635C41.9276 23.8856 41.5439 23.3841 41.0131 23.0104C40.482 22.6171 39.7936 22.4205 38.9483 22.4205ZM57.2255 22.627C58.0514 19.6575 60.1064 18.1728 63.3904 18.1728C63.9608 18.1728 64.5114 18.2121 65.0425 18.2907L64.0986 24.8983C62.6825 24.3674 61.5221 24.1019 60.6176 24.1019C59.4966 24.1019 58.6707 24.4362 58.14 25.1048C57.6089 25.7735 57.3435 26.6682 57.3435 27.7891V27.7597L57.3138 29.7065C57.3138 31.1028 57.3531 32.6563 57.4317 34.3672H50.3819C50.5392 31.5354 50.6178 28.8609 50.6178 26.3437C50.6178 23.8266 50.5392 21.1324 50.3819 18.2613C51.6797 18.3202 52.6728 18.3498 53.3612 18.3498C54.0889 18.3498 55.082 18.3202 56.3405 18.2613L57.2255 22.627ZM85.8055 11.4177C85.6876 15.0755 85.6284 18.9004 85.6284 22.8925C85.6284 26.8452 85.6876 30.6701 85.8055 34.3672H79.1387L79.2272 30.8274C78.6572 32.145 77.831 33.1185 76.7496 33.7478C75.6679 34.3574 74.3896 34.6622 72.9147 34.6622C71.6364 34.6622 70.4859 34.2984 69.4634 33.5708C68.4409 32.8432 67.6445 31.8599 67.074 30.621C66.504 29.3624 66.2188 27.9858 66.2188 26.4912C66.2188 25.0163 66.504 23.6299 67.074 22.332C67.6445 21.0144 68.4409 19.9623 69.4634 19.1757C70.5058 18.3694 71.6856 17.9663 73.0033 17.9663C74.537 17.9663 75.8447 18.2907 76.9264 18.9397C78.0276 19.569 78.8439 20.5523 79.375 21.8895C79.375 20.7686 79.3353 18.9692 79.2567 16.4914C79.178 14.0922 79.1387 12.401 79.1387 11.4177H85.8055ZM76.012 29.7065C76.9757 29.7065 77.7622 29.441 78.372 28.9101C78.9814 28.3595 79.2864 27.4941 79.2864 26.3142C79.2864 25.272 78.9814 24.505 78.372 24.0134C77.7622 23.5218 76.9952 23.2759 76.0711 23.2759C75.1861 23.2759 74.4389 23.5611 73.8291 24.1314C73.2392 24.682 72.9441 25.4096 72.9441 26.3142C72.9441 27.3172 73.2194 28.1333 73.7703 28.7626C74.3209 29.3919 75.0681 29.7065 76.012 29.7065ZM107.084 29.4705C107.084 30.1391 107.163 30.6111 107.32 30.8864C107.478 31.1618 107.793 31.3584 108.265 31.4764L108.147 34.2492C107.517 34.3476 106.966 34.4164 106.495 34.4557C106.042 34.4951 105.433 34.5147 104.666 34.5147C102.975 34.5147 101.854 34.1411 101.303 33.3938C100.752 32.6268 100.477 31.6534 100.477 30.4735V29.736C99.9067 31.3486 99.0709 32.5482 97.9697 33.3348C96.8881 34.1214 95.5017 34.5147 93.8106 34.5147C91.8439 34.5147 90.359 34.1214 89.3563 33.3348C88.3728 32.5482 87.8814 31.3781 87.8814 29.8245C87.8814 28.5463 88.3041 27.5433 89.1498 26.8157C89.9955 26.0881 91.3032 25.5866 93.073 25.3113C91.5785 24.2494 90.0837 23.3251 88.5893 22.5385C89.7691 21.0439 91.1162 19.9131 92.6304 19.1462C94.1447 18.3596 95.9835 17.9663 98.1465 17.9663C101.175 17.9663 103.417 18.6251 104.872 19.9427C106.347 21.2406 107.084 23.2464 107.084 25.9603V29.4705ZM98.7662 23.1579C97.7632 23.1579 96.8781 23.3251 96.1114 23.6594C95.3444 23.9937 94.656 24.4952 94.0466 25.1638C95.2264 25.0262 96.7013 24.9573 98.4711 24.9573C99.1988 24.9573 99.7101 24.8688 100.005 24.6918C100.3 24.5148 100.447 24.2887 100.447 24.0134C100.447 23.7774 100.3 23.5808 100.005 23.4234C99.7101 23.2464 99.297 23.1579 98.7662 23.1579ZM95.6689 29.7065C96.7701 29.7065 97.7632 29.5 98.6482 29.087C99.5329 28.6544 100.143 28.0939 100.477 27.4057V26.6387C100.005 26.8747 99.484 27.0615 98.9136 27.1992C98.3432 27.3172 97.6551 27.4352 96.8487 27.5532L95.7869 27.7301C94.6857 27.9465 94.1348 28.3201 94.1348 28.8511C94.1348 29.4214 94.6464 29.7065 95.6689 29.7065ZM119.569 34.6622C117.916 34.6622 116.235 34.4361 114.524 33.9838C112.833 33.5118 111.24 32.8038 109.746 31.8599L112.843 27.6416C113.747 28.2906 114.839 28.8019 116.117 29.1756C117.395 29.5295 118.497 29.7065 119.421 29.7065C120.306 29.7065 120.984 29.5885 121.456 29.3526C121.948 29.0969 122.194 28.7724 122.194 28.3791C122.194 28.0645 122.076 27.8187 121.84 27.6416C121.604 27.4647 121.28 27.3762 120.866 27.3762C120.611 27.3762 120.316 27.386 119.981 27.4057C119.667 27.4253 119.411 27.445 119.215 27.4647C118.192 27.5827 117.14 27.6416 116.058 27.6416C114.308 27.6416 112.882 27.3172 111.781 26.6682C110.699 25.9996 110.159 24.918 110.159 23.4234C110.159 21.6929 110.975 20.3556 112.607 19.4117C114.239 18.4481 116.639 17.9663 119.805 17.9663C121.358 17.9663 122.921 18.1924 124.495 18.6447C126.088 19.0774 127.494 19.7362 128.713 20.6211L125.321 24.0429C124.2 23.4529 123.148 23.04 122.164 22.804C121.201 22.5483 120.227 22.4205 119.244 22.4205C118.556 22.4205 117.966 22.5581 117.474 22.8335C116.983 23.1088 116.737 23.4234 116.737 23.7774C116.737 24.0527 116.835 24.269 117.032 24.4264C117.248 24.5837 117.523 24.6623 117.858 24.6623C118.192 24.6623 118.654 24.6329 119.244 24.5739C120.68 24.4755 121.751 24.4264 122.459 24.4264C124.505 24.4264 126.088 24.7705 127.208 25.4588C128.329 26.1471 128.89 27.1992 128.89 28.6151C128.89 30.7389 128.064 32.2827 126.412 33.2463C124.76 34.1902 122.479 34.6622 119.569 34.6622ZM158.535 12.9516L160.836 34.3672H153.196L152.724 19.0872L149.774 34.3672H142.046L139.037 19.2052L138.594 34.3672H130.954L133.255 12.9516H143.284L145.851 26.9042L148.093 12.9516H158.535ZM178.793 26.9927H169.177C169.334 27.858 169.718 28.5659 170.327 29.1166C170.957 29.6475 171.842 29.913 172.983 29.913C173.808 29.913 174.585 29.7557 175.313 29.441C176.041 29.1067 176.621 28.6446 177.053 28.0546C178.371 28.7036 180.121 29.4017 182.304 30.149C181.694 31.5256 180.583 32.6268 178.971 33.4528C177.378 34.2591 175.293 34.6622 172.717 34.6622C169.374 34.6622 166.896 33.8953 165.283 32.3613C163.691 30.8078 162.894 28.7724 162.894 26.2552C162.894 23.7971 163.691 21.801 165.283 20.2671C166.876 18.7332 169.354 17.9663 172.717 17.9663C174.723 17.9663 176.463 18.3006 177.938 18.9692C179.413 19.6378 180.544 20.5719 181.33 21.7715C182.117 22.9515 182.51 24.3083 182.51 25.8423C182.51 26.3536 182.491 26.737 182.451 26.9927H178.793ZM173.13 22.4205C172.147 22.4205 171.34 22.6073 170.711 22.981C170.082 23.3546 169.639 23.8659 169.384 24.5148H176.345C176.109 23.8856 175.726 23.3841 175.195 23.0104C174.664 22.6171 173.976 22.4205 173.13 22.4205ZM207.425 34.3672C207.582 31.7911 207.661 29.1264 207.661 26.3732C207.661 25.4883 207.434 24.8 206.982 24.3083C206.55 23.7971 205.969 23.5414 205.242 23.5414C204.573 23.5414 203.993 23.8364 203.502 24.4264C203.029 25.0163 202.793 25.8718 202.793 26.9927V26.9632C202.793 30.444 202.843 32.912 202.941 34.3672H196.304C196.422 31.4764 196.481 28.8118 196.481 26.3732C196.481 25.5079 196.265 24.8197 195.832 24.3083C195.419 23.7971 194.888 23.5414 194.239 23.5414C193.551 23.5414 192.971 23.8364 192.499 24.4264C192.046 24.9966 191.781 25.7833 191.702 26.7862C191.663 28.2808 191.643 29.3427 191.643 29.972C191.643 31.3093 191.683 32.7743 191.761 34.3672H184.711C184.869 31.5354 184.947 28.8609 184.947 26.3437C184.947 23.8266 184.869 21.1324 184.711 18.2613C186.009 18.3202 187.002 18.3498 187.691 18.3498C188.418 18.3498 189.411 18.3202 190.67 18.2613L191.555 22.627C192.007 21.0341 192.725 19.864 193.708 19.1167C194.691 18.3498 195.822 17.9663 197.101 17.9663C198.634 17.9663 199.883 18.3891 200.847 19.2347C201.83 20.0803 202.439 21.1816 202.675 22.5385C203.128 21.1423 203.885 20.0311 204.947 19.2052C206.009 18.3792 207.218 17.9663 208.575 17.9663C210.345 17.9663 211.731 18.5661 212.734 19.7657C213.737 20.9456 214.239 22.568 214.239 24.6329V29.5295C214.239 31.7517 214.259 33.3643 214.298 34.3672H207.425ZM220.895 16.5209C219.656 16.5209 218.732 16.2161 218.123 15.6064C217.532 14.9968 217.238 14.2003 217.238 13.2171C217.238 12.2535 217.532 11.457 218.123 10.8277C218.732 10.1984 219.656 9.88379 220.895 9.88379C222.075 9.88379 222.98 10.2083 223.609 10.8572C224.239 11.4865 224.553 12.2732 224.553 13.2171C224.553 14.2003 224.248 14.9968 223.639 15.6064C223.029 16.2161 222.114 16.5209 220.895 16.5209ZM217.473 34.3672C217.611 31.2011 217.68 28.5856 217.68 26.5207C217.68 24.0625 217.601 21.3094 217.444 18.2613H224.523C224.366 21.1914 224.287 23.9446 224.287 26.5207C224.287 28.6839 224.356 31.2994 224.494 34.3672H217.473ZM234.13 22.568C234.11 23.7479 234.1 25.5571 234.1 27.9956C234.1 30.9258 234.12 33.0496 234.159 34.3672H227.198L227.227 31.0339C227.266 27.3762 227.286 24.5542 227.286 22.568C227.286 20.6801 227.266 18.0056 227.227 14.5445L227.198 11.3587H234.159C234.12 14.1512 234.1 16.4324 234.1 18.2023C234.1 20.1688 234.11 21.624 234.13 22.568ZM240.484 16.5209C239.245 16.5209 238.321 16.2161 237.711 15.6064C237.121 14.9968 236.826 14.2003 236.826 13.2171C236.826 12.2535 237.121 11.457 237.711 10.8277C238.321 10.1984 239.245 9.88379 240.484 9.88379C241.664 9.88379 242.568 10.2083 243.197 10.8572C243.827 11.4865 244.142 12.2732 244.142 13.2171C244.142 14.2003 243.837 14.9968 243.227 15.6064C242.617 16.2161 241.703 16.5209 240.484 16.5209ZM237.062 34.3672C237.2 31.2011 237.269 28.5856 237.269 26.5207C237.269 24.0625 237.19 21.3094 237.033 18.2613H244.112C243.955 21.1914 243.876 23.9446 243.876 26.5207C243.876 28.6839 243.945 31.2994 244.083 34.3672H237.062ZM258.291 34.3672C258.409 31.4764 258.467 28.8118 258.467 26.3732C258.467 25.5079 258.251 24.8197 257.818 24.3083C257.406 23.7971 256.875 23.5414 256.226 23.5414C255.537 23.5414 254.948 23.8757 254.456 24.5443C253.984 25.213 253.748 26.1274 253.748 27.2877L253.718 27.2287C253.718 30.4341 253.758 32.8136 253.836 34.3672H246.786C246.944 31.5354 247.022 27.7006 247.022 22.8629C247.022 18.0253 246.944 14.1905 246.786 11.3587H253.807L253.836 20.4441L253.807 22.0075C254.279 20.6309 254.977 19.6182 255.901 18.9692C256.845 18.3006 257.907 17.9663 259.087 17.9663C260.267 17.9663 261.289 18.2317 262.155 18.7627C263.02 19.274 263.669 19.9721 264.102 20.8571C264.554 21.742 264.78 22.7351 264.78 23.8364V28.0841C264.78 30.6996 264.829 32.794 264.927 34.3672H258.291Z" fill="#FCFCFC"/>
<path d="M209.56 28.8113C209.56 28.8113 280.693 58.463 272.089 28.8113" stroke="#FCFCFC" stroke-width="6.14545" stroke-linecap="round"/>
</g>
<defs>
<clipPath id="clip0_7_63">
<rect width="276" height="45.3504" fill="white"/>
</clipPath>
</defs>
</svg>
